<svg id="SvgjsSvg1001" width="288" height="288" xmlns="http://www.w3.org/2000/svg" version="1.1" xmlns:xlink="http://www.w3.org/1999/xlink" xmlns:svgjs="http://svgjs.com/svgjs"><defs id="SvgjsDefs1002"></defs><g id="SvgjsG1008" transform="matrix(0.9167,0,0,0.9167,11.984914963197724,11.979024382990616)"><!--?xml version="1.0" encoding="UTF-8" standalone="no"?--><svg xmlns="http://www.w3.org/2000/svg" width="288" height="288" viewBox="0 0 256 264" preserveAspectRatio="xMidYMid"><path d="M0 219.978v.955c0 23.413 18.873 42.286 42.286 42.286 23.412 0 42.286-18.873 42.286-42.286v-46.586L0 219.977zM255.673 220.217c-.716-9.079-4.539-17.44-10.99-23.89v-.24l-75.97-67.131-73.822 39.658 95.323 84.81c7.167 6.212 16.245 9.556 25.801 9.556 1.195 0 2.39 0 3.345-.238 10.512-.956 20.068-5.973 26.757-13.857 7.167-7.884 10.273-18.157 9.556-28.668zM84.572 48.206V42.711C84.572 19.3 65.46.426 42.286.426 18.873.426 0 19.299 0 42.71v51.843l84.572-46.348z" fill="#9a0007" class="color4971A9 svgShape"></path><path d="M0 112.71L197.573 4.965c5.734-3.106 12.184-4.54 18.635-4.54 4.061 0 8.122.717 12.184 1.912 20.784 6.69 32.013 28.907 25.323 49.692-2.866 8.6-8.361 16.006-16.006 21.023v.24l-2.39 1.433L0 201.82v-89.11z" fill="#9a0007" class="colorF58A1F svgShape"></path>
	<metadata>
		<rdf:rdf xmlns:rdf="http://www.w3.org/1999/02/22-rdf-syntax-ns#" xmlns:rdfs="http://www.w3.org/2000/01/rdf-schema#" xmlns:dc="http://purl.org/dc/elements/1.1/">
			<rdf:description about="https://iconscout.com/legal#licenses" dc:title="kotlin-company-brand-logo" dc:description="kotlin-company-brand-logo" dc:publisher="Iconscout" dc:date="2017-07-12" dc:format="image/svg+xml" dc:language="en">
				<dc:creator>
					<rdf:bag>
						<rdf:li>Icon Mafia</rdf:li>
					</rdf:bag>
				</dc:creator>
			</rdf:description>
		</rdf:rdf>
    </metadata></svg>
</g></svg>